<svg xmlns="http://www.w3.org/2000/svg" xmlns:xlink="http://www.w3.org/1999/xlink" viewBox="-3.399999976158142 17.600000381469727 296.3999938964844 150" width="395.1999918619792" height="200"><path d="M 184.000,35.400 C 181.117,34.891 181.200,35.400 178.400,35.400" stroke-width="5.111" stroke="black" fill="none" stroke-linecap="round"></path><path d="M 178.400,35.400 C 174.784,36.553 174.717,36.091 171.200,37.800" stroke-width="4.189" stroke="black" fill="none" stroke-linecap="round"></path><path d="M 171.200,37.800 C 165.541,39.645 165.584,39.753 160.000,41.800" stroke-width="3.532" stroke="black" fill="none" stroke-linecap="round"></path><path d="M 160.000,41.800 C 151.044,45.071 151.141,45.245 142.400,49.000" stroke-width="2.869" stroke="black" fill="none" stroke-linecap="round"></path><path d="M 142.400,49.000 C 137.695,50.951 137.844,51.071 133.600,53.800" stroke-width="3.352" stroke="black" fill="none" stroke-linecap="round"></path><path d="M 133.600,53.800 C 127.986,57.244 128.495,57.351 124.000,61.800" stroke-width="3.330" stroke="black" fill="none" stroke-linecap="round"></path><path d="M 124.000,61.800 C 122.400,64.169 122.386,63.644 122.400,66.600" stroke-width="3.975" stroke="black" fill="none" stroke-linecap="round"></path><path d="M 122.400,66.600 C 122.357,70.329 122.400,69.769 124.000,73.000" stroke-width="4.029" stroke="black" fill="none" stroke-linecap="round"></path><path d="M 124.000,73.000 C 126.261,75.186 125.557,75.529 128.800,77.000" stroke-width="4.088" stroke="black" fill="none" stroke-linecap="round"></path><path d="M 128.800,77.000 C 134.760,81.061 134.661,81.186 140.800,85.000" stroke-width="3.226" stroke="black" fill="none" stroke-linecap="round"></path><path d="M 140.800,85.000 C 144.146,86.794 143.960,87.061 147.200,89.000" stroke-width="3.621" stroke="black" fill="none" stroke-linecap="round"></path><path d="M 147.200,89.000 C 151.939,91.638 151.346,91.994 155.200,95.400" stroke-width="3.543" stroke="black" fill="none" stroke-linecap="round"></path><path d="M 155.200,95.400 C 157.185,98.096 157.139,97.638 157.600,101.000" stroke-width="3.941" stroke="black" fill="none" stroke-linecap="round"></path><path d="M 157.600,101.000 C 158.254,104.299 157.985,103.696 156.800,106.600" stroke-width="4.172" stroke="black" fill="none" stroke-linecap="round"></path><path d="M 156.800,106.600 C 152.894,112.005 153.454,111.898 148.000,116.200" stroke-width="3.360" stroke="black" fill="none" stroke-linecap="round"></path><path d="M 148.000,116.200 C 144.274,119.187 144.494,119.205 140.000,121.000" stroke-width="3.493" stroke="black" fill="none" stroke-linecap="round"></path><path d="M 140.000,121.000 C 130.989,124.852 131.074,124.787 121.600,127.400" stroke-width="2.833" stroke="black" fill="none" stroke-linecap="round"></path><path d="M 121.600,127.400 C 102.813,131.858 102.989,132.452 84.000,136.200" stroke-width="1.884" stroke="black" fill="none" stroke-linecap="round"></path><path d="M 84.000,136.200 C 71.680,139.414 71.613,139.058 59.200,141.800" stroke-width="2.129" stroke="black" fill="none" stroke-linecap="round"></path><path d="M 59.200,141.800 C 44.310,143.740 44.480,144.614 29.600,146.600" stroke-width="2.006" stroke="black" fill="none" stroke-linecap="round"></path><path d="M 29.600,146.600 C 15.565,149.661 15.510,149.340 1.600,153.000" stroke-width="2.065" stroke="black" fill="none" stroke-linecap="round"></path><path d="M 231.200,52.200 C 230.547,57.195 230.000,57.000 228.800,61.800" stroke-width="5.068" stroke="black" fill="none" stroke-linecap="round"></path><path d="M 228.800,61.800 C 225.909,68.758 226.147,68.795 222.400,75.400" stroke-width="3.405" stroke="black" fill="none" stroke-linecap="round"></path><path d="M 222.400,75.400 C 214.595,89.912 214.709,89.958 206.400,104.200" stroke-width="2.133" stroke="black" fill="none" stroke-linecap="round"></path><path d="M 206.400,104.200 C 198.800,117.000 198.995,117.112 191.200,129.800" stroke-width="2.070" stroke="black" fill="none" stroke-linecap="round"></path><path d="M 191.200,129.800 C 183.520,142.554 183.600,142.600 176.000,155.400" stroke-width="2.154" stroke="black" fill="none" stroke-linecap="round"></path><path d="M 176.000,155.400 C 171.254,163.968 173.920,158.954 172.000,162.600" stroke-width="3.403" stroke="black" fill="none" stroke-linecap="round"></path><path d="M 172.000,162.600 C 177.173,154.943 173.654,159.568 180.800,146.600" stroke-width="3.875" stroke="black" fill="none" stroke-linecap="round"></path><path d="M 180.800,146.600 C 182.846,135.448 185.173,136.543 188.000,125.800" stroke-width="2.755" stroke="black" fill="none" stroke-linecap="round"></path><path d="M 188.000,125.800 C 199.400,106.575 198.446,106.248 212.000,88.200" stroke-width="1.723" stroke="black" fill="none" stroke-linecap="round"></path><path d="M 212.000,88.200 C 219.241,79.032 218.600,78.575 226.400,69.800" stroke-width="2.130" stroke="black" fill="none" stroke-linecap="round"></path><path d="M 226.400,69.800 C 234.644,59.577 234.441,59.432 242.400,49.000" stroke-width="2.186" stroke="black" fill="none" stroke-linecap="round"></path><path d="M 242.400,49.000 C 247.559,41.371 247.844,41.577 252.800,33.800" stroke-width="2.470" stroke="black" fill="none" stroke-linecap="round"></path><path d="M 252.800,33.800 C 254.494,30.716 254.759,30.971 256.800,28.200" stroke-width="3.375" stroke="black" fill="none" stroke-linecap="round"></path><path d="M 256.800,28.200 C 258.909,25.649 258.894,25.916 261.600,24.200" stroke-width="3.818" stroke="black" fill="none" stroke-linecap="round"></path><path d="M 261.600,24.200 C 264.454,22.188 264.109,22.849 267.200,22.600" stroke-width="4.431" stroke="black" fill="none" stroke-linecap="round"></path><path d="M 267.200,22.600 C 272.731,24.037 272.454,23.388 277.600,26.600" stroke-width="4.247" stroke="black" fill="none" stroke-linecap="round"></path><path d="M 277.600,26.600 C 280.529,28.153 280.331,28.037 282.400,30.600" stroke-width="4.152" stroke="black" fill="none" stroke-linecap="round"></path><path d="M 282.400,30.600 C 288.000,35.207 285.729,34.953 288.000,40.200" stroke-width="4.191" stroke="black" fill="none" stroke-linecap="round"></path><path d="M 288.000,40.200 C 286.553,47.986 288.000,46.807 282.400,53.800" stroke-width="4.002" stroke="black" fill="none" stroke-linecap="round"></path><path d="M 282.400,53.800 C 277.850,59.236 278.553,59.186 272.000,62.600" stroke-width="3.343" stroke="black" fill="none" stroke-linecap="round"></path><path d="M 272.000,62.600 C 261.361,67.816 261.850,68.436 250.400,72.200" stroke-width="2.512" stroke="black" fill="none" stroke-linecap="round"></path><path d="M 250.400,72.200 C 243.330,75.080 243.361,75.016 236.000,77.000" stroke-width="2.817" stroke="black" fill="none" stroke-linecap="round"></path><path d="M 236.000,77.000 C 226.262,78.510 226.530,79.480 216.800,81.000" stroke-width="2.670" stroke="black" fill="none" stroke-linecap="round"></path></svg>