<svg xmlns="http://www.w3.org/2000/svg" xmlns:xlink="http://www.w3.org/1999/xlink" viewBox="78.19999694824219 16 342.83538818359375 142.8000030517578" width="480.1615978388084" height="200"><path d="M 116.800,41.800 C 115.200,49.000 115.200,49.000 113.600,56.200" stroke-width="4.989" stroke="black" fill="none" stroke-linecap="round"></path><path d="M 113.600,56.200 C 112.035,63.408 112.000,63.400 110.400,70.600" stroke-width="3.418" stroke="black" fill="none" stroke-linecap="round"></path><path d="M 110.400,70.600 C 108.454,81.125 108.035,81.008 105.600,91.400" stroke-width="2.644" stroke="black" fill="none" stroke-linecap="round"></path><path d="M 105.600,91.400 C 102.502,102.789 102.454,102.725 98.400,113.800" stroke-width="2.376" stroke="black" fill="none" stroke-linecap="round"></path><path d="M 98.400,113.800 C 94.044,122.863 94.902,123.189 90.400,132.200" stroke-width="2.568" stroke="black" fill="none" stroke-linecap="round"></path><path d="M 90.400,132.200 C 88.000,139.400 87.644,139.263 85.600,146.600" stroke-width="2.783" stroke="black" fill="none" stroke-linecap="round"></path><path d="M 85.600,146.600 C 82.739,154.568 84.400,150.200 83.200,153.800" stroke-width="3.475" stroke="black" fill="none" stroke-linecap="round"></path><path d="M 83.200,153.800 C 85.782,148.269 83.939,152.568 88.000,142.600" stroke-width="4.284" stroke="black" fill="none" stroke-linecap="round"></path><path d="M 88.000,142.600 C 89.378,139.052 89.382,139.069 90.400,135.400" stroke-width="4.000" stroke="black" fill="none" stroke-linecap="round"></path><path d="M 90.400,135.400 C 92.127,129.030 92.178,129.052 93.600,122.600" stroke-width="3.378" stroke="black" fill="none" stroke-linecap="round"></path><path d="M 93.600,122.600 C 96.307,109.779 96.527,109.830 99.200,97.000" stroke-width="2.398" stroke="black" fill="none" stroke-linecap="round"></path><path d="M 99.200,97.000 C 101.150,88.588 101.107,88.579 103.200,80.200" stroke-width="2.660" stroke="black" fill="none" stroke-linecap="round"></path><path d="M 103.200,80.200 C 105.256,70.500 105.550,70.588 108.000,61.000" stroke-width="2.556" stroke="black" fill="none" stroke-linecap="round"></path><path d="M 108.000,61.000 C 110.234,52.334 110.456,52.500 113.600,44.200" stroke-width="2.692" stroke="black" fill="none" stroke-linecap="round"></path><path d="M 113.600,44.200 C 115.236,40.710 115.034,40.734 117.600,37.800" stroke-width="3.435" stroke="black" fill="none" stroke-linecap="round"></path><path d="M 117.600,37.800 C 120.365,33.966 120.436,34.310 124.000,31.400" stroke-width="3.544" stroke="black" fill="none" stroke-linecap="round"></path><path d="M 124.000,31.400 C 127.546,28.687 127.165,29.166 131.200,28.200" stroke-width="4.187" stroke="black" fill="none" stroke-linecap="round"></path><path d="M 131.200,28.200 C 135.036,27.872 133.546,27.887 136.000,29.800" stroke-width="4.648" stroke="black" fill="none" stroke-linecap="round"></path><path d="M 136.000,29.800 C 136.800,34.608 137.836,33.472 136.800,39.400" stroke-width="4.438" stroke="black" fill="none" stroke-linecap="round"></path><path d="M 136.800,39.400 C 137.009,42.774 136.800,42.608 136.000,45.800" stroke-width="4.180" stroke="black" fill="none" stroke-linecap="round"></path><path d="M 136.000,45.800 C 133.949,51.203 134.209,51.174 131.200,56.200" stroke-width="3.505" stroke="black" fill="none" stroke-linecap="round"></path><path d="M 131.200,56.200 C 129.526,59.295 129.549,59.203 127.200,61.800" stroke-width="3.882" stroke="black" fill="none" stroke-linecap="round"></path><path d="M 127.200,61.800 C 124.309,65.061 124.326,64.895 120.800,67.400" stroke-width="3.788" stroke="black" fill="none" stroke-linecap="round"></path><path d="M 120.800,67.400 C 116.944,69.789 117.109,69.861 112.800,71.400" stroke-width="3.660" stroke="black" fill="none" stroke-linecap="round"></path><path d="M 113.600,105.000 C 116.177,101.594 115.600,101.400 117.600,97.800" stroke-width="5.377" stroke="black" fill="none" stroke-linecap="round"></path><path d="M 117.600,97.800 C 118.244,95.017 118.577,95.194 118.400,92.200" stroke-width="4.512" stroke="black" fill="none" stroke-linecap="round"></path><path d="M 118.400,92.200 C 117.892,84.670 118.644,87.817 118.400,83.400" stroke-width="4.462" stroke="black" fill="none" stroke-linecap="round"></path><path d="M 118.400,83.400 C 119.200,85.800 118.692,82.670 120.000,88.200" stroke-width="5.162" stroke="black" fill="none" stroke-linecap="round"></path><path d="M 120.000,88.200 C 119.943,92.669 120.800,90.600 121.600,93.000" stroke-width="5.266" stroke="black" fill="none" stroke-linecap="round"></path><path d="M 121.600,93.000 C 124.800,91.400 123.943,93.469 128.000,89.800" stroke-width="5.028" stroke="black" fill="none" stroke-linecap="round"></path><path d="M 128.000,89.800 C 132.615,86.846 130.400,88.600 132.800,87.400" stroke-width="5.084" stroke="black" fill="none" stroke-linecap="round"></path><path d="M 132.800,87.400 C 130.347,89.548 133.015,88.046 128.800,92.200" stroke-width="5.382" stroke="black" fill="none" stroke-linecap="round"></path><path d="M 128.800,92.200 C 125.916,96.572 127.547,94.348 127.200,97.000" stroke-width="5.278" stroke="black" fill="none" stroke-linecap="round"></path><path d="M 127.200,97.000 C 131.741,96.169 129.516,97.772 136.000,94.600" stroke-width="4.891" stroke="black" fill="none" stroke-linecap="round"></path><path d="M 136.000,94.600 C 140.057,93.743 139.341,93.369 142.400,91.400" stroke-width="4.734" stroke="black" fill="none" stroke-linecap="round"></path><path d="M 142.400,91.400 C 144.567,86.789 144.057,89.743 144.000,86.600" stroke-width="5.071" stroke="black" fill="none" stroke-linecap="round"></path><path d="M 144.000,86.600 C 141.629,88.320 143.367,86.389 140.000,90.600" stroke-width="5.255" stroke="black" fill="none" stroke-linecap="round"></path><path d="M 140.000,90.600 C 134.483,95.946 137.629,93.920 136.000,97.800" stroke-width="4.724" stroke="black" fill="none" stroke-linecap="round"></path><path d="M 136.000,97.800 C 141.655,99.400 138.083,100.346 147.200,99.400" stroke-width="4.662" stroke="black" fill="none" stroke-linecap="round"></path><path d="M 147.200,99.400 C 150.063,98.777 150.055,99.400 152.800,97.800" stroke-width="4.272" stroke="black" fill="none" stroke-linecap="round"></path><path d="M 152.800,97.800 C 156.400,97.400 155.663,96.777 158.400,95.400" stroke-width="4.179" stroke="black" fill="none" stroke-linecap="round"></path><path d="M 158.400,95.400 C 161.438,91.927 160.400,93.400 160.800,89.800" stroke-width="4.724" stroke="black" fill="none" stroke-linecap="round"></path><path d="M 160.800,89.800 C 158.100,86.754 160.238,87.927 156.000,87.400" stroke-width="4.954" stroke="black" fill="none" stroke-linecap="round"></path><path d="M 156.000,87.400 C 150.190,90.688 152.900,88.354 150.400,93.000" stroke-width="4.885" stroke="black" fill="none" stroke-linecap="round"></path><path d="M 150.400,93.000 C 153.451,96.200 150.590,95.088 156.800,96.200" stroke-width="5.016" stroke="black" fill="none" stroke-linecap="round"></path><path d="M 156.800,96.200 C 162.523,94.917 162.251,96.200 168.000,93.000" stroke-width="3.638" stroke="black" fill="none" stroke-linecap="round"></path><path d="M 168.000,93.000 C 170.552,92.045 170.523,92.117 172.800,90.600" stroke-width="4.062" stroke="black" fill="none" stroke-linecap="round"></path><path d="M 172.800,90.600 C 178.721,86.518 176.152,88.445 179.200,85.800" stroke-width="4.394" stroke="black" fill="none" stroke-linecap="round"></path><path d="M 179.200,85.800 C 176.328,86.447 179.521,85.318 174.400,88.200" stroke-width="4.983" stroke="black" fill="none" stroke-linecap="round"></path><path d="M 174.400,88.200 C 169.231,92.631 171.928,90.447 170.400,93.800" stroke-width="4.766" stroke="black" fill="none" stroke-linecap="round"></path><path d="M 170.400,93.800 C 175.416,94.717 172.031,95.431 180.000,93.800" stroke-width="4.733" stroke="black" fill="none" stroke-linecap="round"></path><path d="M 180.000,93.800 C 183.313,92.401 183.416,93.117 186.400,90.600" stroke-width="4.107" stroke="black" fill="none" stroke-linecap="round"></path><path d="M 186.400,90.600 C 193.256,87.173 192.913,86.801 199.200,82.600" stroke-width="3.176" stroke="black" fill="none" stroke-linecap="round"></path><path d="M 199.200,82.600 C 203.807,79.054 203.656,79.173 207.200,74.600" stroke-width="3.258" stroke="black" fill="none" stroke-linecap="round"></path><path d="M 207.200,74.600 C 210.485,70.546 210.207,70.654 212.000,65.800" stroke-width="3.450" stroke="black" fill="none" stroke-linecap="round"></path><path d="M 212.000,65.800 C 216.052,51.479 216.485,51.746 219.200,37.000" stroke-width="2.332" stroke="black" fill="none" stroke-linecap="round"></path><path d="M 219.200,37.000 C 219.600,33.000 220.052,33.079 220.000,29.000" stroke-width="3.206" stroke="black" fill="none" stroke-linecap="round"></path><path d="M 220.000,29.000 C 221.662,21.647 220.400,25.000 220.800,21.000" stroke-width="3.564" stroke="black" fill="none" stroke-linecap="round"></path><path d="M 220.800,21.000 C 218.708,23.738 220.062,20.447 216.800,26.600" stroke-width="4.477" stroke="black" fill="none" stroke-linecap="round"></path><path d="M 216.800,26.600 C 213.688,30.821 213.908,30.938 211.200,35.400" stroke-width="3.734" stroke="black" fill="none" stroke-linecap="round"></path><path d="M 211.200,35.400 C 203.340,49.108 203.688,49.221 196.800,63.400" stroke-width="2.224" stroke="black" fill="none" stroke-linecap="round"></path><path d="M 196.800,63.400 C 192.947,72.912 192.540,72.708 189.600,82.600" stroke-width="2.493" stroke="black" fill="none" stroke-linecap="round"></path><path d="M 189.600,82.600 C 185.538,94.981 185.347,94.912 181.600,107.400" stroke-width="2.235" stroke="black" fill="none" stroke-linecap="round"></path><path d="M 181.600,107.400 C 178.490,112.088 180.338,111.381 179.200,115.400" stroke-width="3.127" stroke="black" fill="none" stroke-linecap="round"></path><path d="M 179.200,115.400 C 181.554,119.313 179.690,117.688 184.000,118.600" stroke-width="4.141" stroke="black" fill="none" stroke-linecap="round"></path><path d="M 184.000,118.600 C 191.695,114.829 191.154,116.513 198.400,109.800" stroke-width="3.893" stroke="black" fill="none" stroke-linecap="round"></path><path d="M 198.400,109.800 C 202.973,106.256 202.895,106.429 206.400,101.800" stroke-width="3.517" stroke="black" fill="none" stroke-linecap="round"></path><path d="M 206.400,101.800 C 211.136,95.746 210.973,95.856 214.400,89.000" stroke-width="3.057" stroke="black" fill="none" stroke-linecap="round"></path><path d="M 214.400,89.000 C 216.874,83.104 217.136,83.346 218.400,77.000" stroke-width="3.173" stroke="black" fill="none" stroke-linecap="round"></path><path d="M 218.400,77.000 C 219.572,69.614 219.274,73.504 219.200,69.800" stroke-width="3.676" stroke="black" fill="none" stroke-linecap="round"></path><path d="M 219.200,69.800 C 218.178,73.862 218.772,70.014 216.800,77.800" stroke-width="4.624" stroke="black" fill="none" stroke-linecap="round"></path><path d="M 216.800,77.800 C 215.014,81.734 215.378,81.862 213.600,85.800" stroke-width="3.901" stroke="black" fill="none" stroke-linecap="round"></path><path d="M 213.600,85.800 C 211.550,90.909 211.814,90.934 210.400,96.200" stroke-width="3.497" stroke="black" fill="none" stroke-linecap="round"></path><path d="M 210.400,96.200 C 208.373,102.236 209.550,100.109 209.600,104.200" stroke-width="4.157" stroke="black" fill="none" stroke-linecap="round"></path><path d="M 209.600,104.200 C 212.431,104.032 210.373,105.436 214.400,102.600" stroke-width="4.780" stroke="black" fill="none" stroke-linecap="round"></path><path d="M 214.400,102.600 C 215.831,98.986 216.831,100.832 218.400,97.800" stroke-width="4.745" stroke="black" fill="none" stroke-linecap="round"></path><path d="M 218.400,97.800 C 221.609,97.623 221.031,96.586 224.800,97.800" stroke-width="5.072" stroke="black" fill="none" stroke-linecap="round"></path><path d="M 224.800,97.800 C 229.278,99.539 228.809,98.023 232.800,98.600" stroke-width="4.694" stroke="black" fill="none" stroke-linecap="round"></path><path d="M 232.800,98.600 C 236.990,96.501 235.278,97.939 236.800,94.600" stroke-width="4.933" stroke="black" fill="none" stroke-linecap="round"></path><path d="M 236.800,94.600 C 234.400,90.600 236.590,92.501 232.000,90.600" stroke-width="5.084" stroke="black" fill="none" stroke-linecap="round"></path><path d="M 232.000,90.600 C 228.670,92.081 229.600,90.600 227.200,94.600" stroke-width="4.831" stroke="black" fill="none" stroke-linecap="round"></path><path d="M 227.200,94.600 C 225.200,98.600 225.870,96.881 226.400,100.200" stroke-width="4.795" stroke="black" fill="none" stroke-linecap="round"></path><path d="M 226.400,100.200 C 229.186,100.799 227.600,101.800 232.000,101.000" stroke-width="4.329" stroke="black" fill="none" stroke-linecap="round"></path><path d="M 232.000,101.000 C 234.842,101.394 234.786,101.199 237.600,101.000" stroke-width="4.214" stroke="black" fill="none" stroke-linecap="round"></path><path d="M 237.600,101.000 C 243.426,100.391 243.242,100.194 248.800,98.600" stroke-width="3.578" stroke="black" fill="none" stroke-linecap="round"></path><path d="M 248.800,98.600 C 252.383,97.642 251.826,97.591 254.400,95.400" stroke-width="3.954" stroke="black" fill="none" stroke-linecap="round"></path><path d="M 254.400,95.400 C 256.398,90.799 255.983,93.642 256.000,90.600" stroke-width="4.765" stroke="black" fill="none" stroke-linecap="round"></path><path d="M 256.000,90.600 C 252.115,94.257 255.598,90.399 252.800,94.600" stroke-width="5.129" stroke="black" fill="none" stroke-linecap="round"></path><path d="M 252.800,94.600 C 256.456,94.029 253.715,95.057 259.200,92.200" stroke-width="4.984" stroke="black" fill="none" stroke-linecap="round"></path><path d="M 259.200,92.200 C 261.636,87.818 261.256,90.829 262.400,88.200" stroke-width="4.942" stroke="black" fill="none" stroke-linecap="round"></path><path d="M 262.400,88.200 C 261.000,92.400 263.236,88.618 262.400,93.800" stroke-width="5.222" stroke="black" fill="none" stroke-linecap="round"></path><path d="M 262.400,93.800 C 265.833,94.982 263.800,95.200 268.000,93.800" stroke-width="5.200" stroke="black" fill="none" stroke-linecap="round"></path><path d="M 268.000,93.800 C 269.128,89.622 270.233,92.582 271.200,89.000" stroke-width="4.920" stroke="black" fill="none" stroke-linecap="round"></path><path d="M 271.200,89.000 C 273.455,90.813 273.128,88.422 276.000,91.400" stroke-width="5.240" stroke="black" fill="none" stroke-linecap="round"></path><path d="M 276.000,91.400 C 279.280,92.560 278.655,92.013 281.600,91.400" stroke-width="4.915" stroke="black" fill="none" stroke-linecap="round"></path><path d="M 281.600,91.400 C 285.003,88.973 284.880,89.760 287.200,85.800" stroke-width="4.864" stroke="black" fill="none" stroke-linecap="round"></path><path d="M 287.200,85.800 C 287.676,83.248 288.603,83.773 288.800,81.000" stroke-width="5.169" stroke="black" fill="none" stroke-linecap="round"></path><path d="M 288.800,81.000 C 290.930,77.873 290.476,77.648 292.800,74.600" stroke-width="4.778" stroke="black" fill="none" stroke-linecap="round"></path><path d="M 292.800,74.600 C 294.066,72.231 294.130,72.273 295.200,69.800" stroke-width="4.415" stroke="black" fill="none" stroke-linecap="round"></path><path d="M 295.200,69.800 C 299.442,64.267 296.866,66.231 298.400,62.600" stroke-width="3.999" stroke="black" fill="none" stroke-linecap="round"></path><path d="M 298.400,62.600 C 294.482,62.169 297.442,61.067 291.200,63.400" stroke-width="4.697" stroke="black" fill="none" stroke-linecap="round"></path><path d="M 291.200,63.400 C 287.871,64.922 288.082,64.569 285.600,67.400" stroke-width="4.135" stroke="black" fill="none" stroke-linecap="round"></path><path d="M 285.600,67.400 C 282.906,69.962 283.471,69.722 282.400,73.000" stroke-width="4.095" stroke="black" fill="none" stroke-linecap="round"></path><path d="M 282.400,73.000 C 281.851,77.752 281.706,77.162 283.200,81.800" stroke-width="3.753" stroke="black" fill="none" stroke-linecap="round"></path><path d="M 283.200,81.800 C 284.866,84.900 284.251,84.952 287.200,87.400" stroke-width="3.925" stroke="black" fill="none" stroke-linecap="round"></path><path d="M 287.200,87.400 C 290.743,90.666 290.466,90.900 294.400,93.800" stroke-width="3.685" stroke="black" fill="none" stroke-linecap="round"></path><path d="M 294.400,93.800 C 299.621,97.421 299.143,97.866 304.000,101.800" stroke-width="3.363" stroke="black" fill="none" stroke-linecap="round"></path><path d="M 304.000,101.800 C 306.774,104.043 306.021,103.821 307.200,106.600" stroke-width="3.908" stroke="black" fill="none" stroke-linecap="round"></path><path d="M 307.200,106.600 C 307.183,109.642 307.574,108.843 305.600,111.400" stroke-width="4.157" stroke="black" fill="none" stroke-linecap="round"></path><path d="M 305.600,111.400 C 303.013,113.545 303.583,113.642 300.000,114.600" stroke-width="4.101" stroke="black" fill="none" stroke-linecap="round"></path><path d="M 300.000,114.600 C 294.866,116.248 295.013,116.345 289.600,117.000" stroke-width="3.564" stroke="black" fill="none" stroke-linecap="round"></path><path d="M 289.600,117.000 C 281.516,119.628 283.666,117.848 277.600,117.800" stroke-width="3.309" stroke="black" fill="none" stroke-linecap="round"></path><path d="M 277.600,117.800 C 275.930,113.765 275.516,116.827 277.600,111.400" stroke-width="4.329" stroke="black" fill="none" stroke-linecap="round"></path><path d="M 277.600,111.400 C 282.114,107.361 280.730,106.965 287.200,104.200" stroke-width="3.551" stroke="black" fill="none" stroke-linecap="round"></path><path d="M 287.200,104.200 C 297.233,98.657 296.914,98.161 307.200,93.000" stroke-width="2.583" stroke="black" fill="none" stroke-linecap="round"></path><path d="M 307.200,93.000 C 312.232,90.526 312.033,90.257 316.800,87.400" stroke-width="3.058" stroke="black" fill="none" stroke-linecap="round"></path><path d="M 316.800,87.400 C 320.622,81.469 319.832,85.326 322.400,82.600" stroke-width="3.994" stroke="black" fill="none" stroke-linecap="round"></path><path d="M 322.400,82.600 C 323.424,88.105 325.022,84.269 325.600,93.000" stroke-width="4.739" stroke="black" fill="none" stroke-linecap="round"></path><path d="M 325.600,93.000 C 326.998,97.000 326.624,95.305 328.800,97.000" stroke-width="4.981" stroke="black" fill="none" stroke-linecap="round"></path><path d="M 328.800,97.000 C 331.607,95.355 330.998,97.000 333.600,93.000" stroke-width="4.818" stroke="black" fill="none" stroke-linecap="round"></path><path d="M 333.600,93.000 C 335.829,89.920 336.007,90.155 337.600,86.600" stroke-width="4.648" stroke="black" fill="none" stroke-linecap="round"></path><path d="M 337.600,86.600 C 338.420,81.197 339.029,83.920 340.000,81.000" stroke-width="4.230" stroke="black" fill="none" stroke-linecap="round"></path><path d="M 340.000,81.000 C 341.432,84.332 341.620,80.797 344.000,85.800" stroke-width="4.945" stroke="black" fill="none" stroke-linecap="round"></path><path d="M 344.000,85.800 C 348.031,88.079 347.032,87.532 351.200,87.400" stroke-width="5.280" stroke="black" fill="none" stroke-linecap="round"></path><path d="M 351.200,87.400 C 352.942,83.811 353.631,86.879 355.200,83.400" stroke-width="5.206" stroke="black" fill="none" stroke-linecap="round"></path><path d="M 355.200,83.400 C 357.447,85.460 357.342,83.011 360.000,85.800" stroke-width="5.365" stroke="black" fill="none" stroke-linecap="round"></path><path d="M 360.000,85.800 C 364.466,86.823 363.447,86.260 367.200,85.000" stroke-width="5.222" stroke="black" fill="none" stroke-linecap="round"></path><path d="M 367.200,85.000 C 369.600,81.400 370.466,82.823 372.000,77.800" stroke-width="4.662" stroke="black" fill="none" stroke-linecap="round"></path><path d="M 372.000,77.800 C 374.006,72.801 373.600,75.400 375.200,73.000" stroke-width="4.764" stroke="black" fill="none" stroke-linecap="round"></path><path d="M 375.200,73.000 C 375.823,75.863 376.406,73.201 376.800,78.600" stroke-width="5.098" stroke="black" fill="none" stroke-linecap="round"></path><path d="M 376.800,78.600 C 377.257,82.063 377.823,81.463 379.200,84.200" stroke-width="4.335" stroke="black" fill="none" stroke-linecap="round"></path><path d="M 379.200,84.200 C 382.362,87.806 381.257,86.463 384.800,87.400" stroke-width="4.783" stroke="black" fill="none" stroke-linecap="round"></path><path d="M 384.800,87.400 C 387.586,85.376 387.162,87.006 388.800,82.600" stroke-width="4.729" stroke="black" fill="none" stroke-linecap="round"></path><path d="M 388.800,82.600 C 389.691,78.616 390.386,78.976 390.400,74.600" stroke-width="4.611" stroke="black" fill="none" stroke-linecap="round"></path><path d="M 390.400,74.600 C 391.200,68.649 390.891,71.816 391.200,69.000" stroke-width="4.743" stroke="black" fill="none" stroke-linecap="round"></path><path d="M 391.200,69.000 C 390.601,72.589 391.200,69.449 390.400,76.200" stroke-width="4.995" stroke="black" fill="none" stroke-linecap="round"></path><path d="M 390.400,76.200 C 388.647,82.232 390.201,79.789 390.400,83.400" stroke-width="4.742" stroke="black" fill="none" stroke-linecap="round"></path><path d="M 390.400,83.400 C 395.371,83.571 392.247,84.632 397.600,81.000" stroke-width="4.831" stroke="black" fill="none" stroke-linecap="round"></path><path d="M 397.600,81.000 C 399.498,76.283 400.571,77.571 400.800,71.400" stroke-width="4.450" stroke="black" fill="none" stroke-linecap="round"></path><path d="M 400.800,71.400 C 402.642,64.244 402.698,64.283 404.000,57.000" stroke-width="4.068" stroke="black" fill="none" stroke-linecap="round"></path><path d="M 404.000,57.000 C 404.998,51.421 405.042,51.444 405.600,45.800" stroke-width="4.152" stroke="black" fill="none" stroke-linecap="round"></path><path d="M 405.600,45.800 C 406.941,40.013 406.198,40.221 406.400,34.600" stroke-width="4.183" stroke="black" fill="none" stroke-linecap="round"></path><path d="M 406.400,34.600 C 405.124,29.613 406.141,32.013 404.000,29.800" stroke-width="4.621" stroke="black" fill="none" stroke-linecap="round"></path><path d="M 404.000,29.800 C 402.669,32.549 402.724,30.013 401.600,35.400" stroke-width="4.709" stroke="black" fill="none" stroke-linecap="round"></path><path d="M 401.600,35.400 C 398.282,42.013 399.069,42.149 396.800,49.000" stroke-width="3.405" stroke="black" fill="none" stroke-linecap="round"></path><path d="M 396.800,49.000 C 395.801,55.419 395.482,55.213 396.000,61.800" stroke-width="3.263" stroke="black" fill="none" stroke-linecap="round"></path><path d="M 396.000,61.800 C 396.000,68.467 396.201,68.219 397.600,74.600" stroke-width="3.217" stroke="black" fill="none" stroke-linecap="round"></path><path d="M 397.600,74.600 C 398.646,77.880 398.400,77.667 400.800,80.200" stroke-width="3.775" stroke="black" fill="none" stroke-linecap="round"></path><path d="M 400.800,80.200 C 404.094,84.579 403.846,83.480 408.000,85.800" stroke-width="3.638" stroke="black" fill="none" stroke-linecap="round"></path><path d="M 408.000,85.800 C 412.082,86.098 410.494,86.579 413.600,84.200" stroke-width="4.523" stroke="black" fill="none" stroke-linecap="round"></path><path d="M 413.600,84.200 C 413.728,80.938 415.282,82.098 414.400,77.800" stroke-width="4.842" stroke="black" fill="none" stroke-linecap="round"></path><path d="M 414.400,77.800 C 417.595,74.063 414.928,75.338 416.000,73.000" stroke-width="5.162" stroke="black" fill="none" stroke-linecap="round"></path><path d="M 416.000,73.000 C 409.321,69.913 411.595,70.063 402.400,69.800" stroke-width="5.090" stroke="black" fill="none" stroke-linecap="round"></path><path d="M 402.400,69.800 C 384.779,70.752 384.921,69.513 367.200,72.200" stroke-width="2.184" stroke="black" fill="none" stroke-linecap="round"></path><path d="M 367.200,72.200 C 350.766,73.522 350.779,73.552 334.400,75.400" stroke-width="2.042" stroke="black" fill="none" stroke-linecap="round"></path><path d="M 334.400,75.400 C 321.445,76.970 326.366,76.322 318.400,77.800" stroke-width="2.518" stroke="black" fill="none" stroke-linecap="round"></path><path d="M 318.400,77.800 C 322.008,77.980 317.045,78.170 325.600,77.800" stroke-width="3.824" stroke="black" fill="none" stroke-linecap="round"></path><circle r="1.5" cx="368.79998779296875" cy="47.40000915527344" fill="black"></circle></svg>